/* XPM */
static char *_521549182056[] = {
/* columns rows colors chars-per-pixel */
"16 16 69 1 ",
"  c #6A6969",
". c #800000",
"X c #880000",
"o c #900000",
"O c #940000",
"+ c #9A0000",
"@ c #9D0000",
"# c #A40000",
"$ c #AE0000",
"% c #A31919",
"& c #AA2828",
"* c #B62020",
"= c #B42929",
"- c #B53737",
"; c #BA4646",
": c #C76464",
"> c #D07A7A",
", c #818080",
"< c #878686",
"1 c #8C8A8A",
"2 c #979494",
"3 c #9C9B9B",
"4 c #9F9D9D",
"5 c #9AA9A9",
"6 c #A5A3A3",
"7 c #A8A7A7",
"8 c #A9AAAA",
"9 c #AEABAB",
"0 c #B2B0B0",
"q c #B2B2B2",
"w c #B6B2B2",
"e c #B6B5B5",
"r c #B8B7B7",
"t c #BAB9B9",
"y c #BCBCBC",
"u c gray",
"i c #D18282",
"p c #D78E8E",
"a c #E59898",
"s c #E29E9E",
"d c #C1BDBD",
"f c #E7B5B5",
"g c #E2BFBF",
"h c #9BC1C1",
"j c #AFD9D9",
"k c #BEE8E8",
"l c #C2C4C4",
"z c #C9C7C7",
"x c #CDCBCB",
"c c #C6DFDF",
"v c #D8D3D3",
"b c #F1C6C6",
"n c #F3CDCD",
"m c #FAD6D6",
"M c #C0E5E5",
"N c #D0FFFF",
"B c #DCFFFF",
"V c #E3E4E4",
"C c #E2E5E5",
"Z c #F2EFEF",
"A c #F8E9E9",
"S c #FFEAEA",
"D c #EEF1F1",
"F c #ECFBFB",
"G c #F7F6F6",
"H c #F8F1F1",
"J c #FCF4F4",
"K c #F7F9F9",
"L c white",
/* pixels */
"LLLLLLLLLLLLLLLL",
"LLLLLLLLLLLLLLLL",
"LLdr00rxL9w0ruLL",
"LL,LLLL3zGLLL1LL",
"LLKwdL4LL7VZ6KLL",
"LLLLcFL5LBLMLLLL",
"LLO@SNOL8$%mOoLL",
"LLXA:L@ns=Lp>HLL",
"LLXL;-%XLL.fiJLL",
"LLX#b*L&a@&g+oLL",
"LLLLjL5LkLLhLLLL",
"LLV3L8vLL LL<DLL",
"LL3LLLLl4LLLL2LL",
"LLue0w8Lxt00ruLL",
"LLLLLLLLLLLLLLLL",
"LLLLLLLLLLLLLLLL"
};
