/* XPM */
static char *_521549222826[] = {
/* columns rows colors chars-per-pixel */
"32 32 134 2 ",
"   c #4D5050",
".  c #646161",
"X  c #676666",
"o  c #6B6A6A",
"O  c #6F6C6C",
"+  c #716E6E",
"@  c #737171",
"#  c #767373",
"$  c #767575",
"%  c #787575",
"&  c #7B7878",
"*  c #7C7B7B",
"=  c #7C7D7D",
"-  c #8B0000",
";  c #8D0000",
":  c #900000",
">  c #960000",
",  c #9B0000",
"<  c #9F0000",
"1  c #A00000",
"2  c #A30404",
"3  c #A50808",
"4  c #A50F0F",
"5  c #AA0E0E",
"6  c #A81616",
"7  c #AB1B1B",
"8  c #B02727",
"9  c #B02929",
"0  c #B12A2A",
"q  c #B12B2B",
"w  c #B43232",
"e  c #B63838",
"r  c #B63A3A",
"t  c #B94343",
"y  c #BB4444",
"u  c #BC4848",
"i  c #BF4D4D",
"p  c #BF5151",
"a  c #817F7F",
"s  c #C24747",
"d  c #C75656",
"f  c #C35A5A",
"g  c #C45A5A",
"h  c #C45C5C",
"j  c #C56161",
"k  c #C66666",
"l  c #C76969",
"z  c #C96A6A",
"x  c #CA6E6E",
"c  c #CC7070",
"v  c #CF7878",
"b  c #D47777",
"n  c #8B8787",
"m  c #878A8A",
"M  c #8B8A8A",
"N  c #8E8C8C",
"B  c #918F8F",
"V  c #919090",
"C  c #949393",
"Z  c #959393",
"A  c #969595",
"S  c #999797",
"D  c #9B9A9A",
"F  c #9C9999",
"G  c #9F9E9E",
"H  c #A39F9F",
"J  c #A3A0A0",
"K  c #A4A2A2",
"L  c #A1A5A5",
"P  c #A5A4A4",
"I  c #A8A6A6",
"U  c #A3A9A9",
"Y  c #ABAAAA",
"T  c #ACABAB",
"R  c #ACB7B7",
"E  c #B4B3B3",
"W  c #B7B6B6",
"Q  c gray72",
"!  c gray75",
"~  c #D28888",
"^  c #D68E8E",
"/  c #D98F8F",
"(  c #D79292",
")  c #D89696",
"_  c #D99797",
"`  c #DA9B9B",
"'  c #DB9D9D",
"]  c #DFA7A7",
"[  c #E2B1B1",
"{  c #EAB1B1",
"}  c #E6BDBD",
"|  c #B7C0C0",
" . c #B6C5C5",
".. c #C5C3C3",
"X. c #C3C4C4",
"o. c #C9C8C8",
"O. c #CFCDCD",
"+. c #CED1D1",
"@. c #D1D0D0",
"#. c #D5D3D3",
"$. c #D7D6D6",
"%. c #D1DCDC",
"&. c #D4DDDD",
"*. c #DBDADA",
"=. c #DCDBDB",
"-. c gainsboro",
";. c #EAC9C9",
":. c #EFC9C9",
">. c #ECCCCC",
",. c #F0C8C8",
"<. c #F3D5D5",
"1. c #F8DCDC",
"2. c #D1E6E6",
"3. c #DFE8E8",
"4. c #DEF7F7",
"5. c #E0E1E1",
"6. c #E7E5E5",
"7. c #E8E7E7",
"8. c #E7E9E9",
"9. c #EBEAEA",
"0. c #EBEDED",
"q. c #EEEDED",
"w. c #F5E1E1",
"e. c #F6E6E6",
"r. c #F8EBEB",
"t. c #FDEBEB",
"y. c #F1F0F0",
"u. c #F5F6F6",
"i. c #F9F0F0",
"p. c #F0FCFC",
"a. c #F2FFFF",
"s. c #F7FFFF",
"d. c gray98",
"f. c white",
/* pixels */
"f.f.f.f.f.f.f.f.f.f.f.f.f.f.f.f.f.f.f.f.f.f.f.f.f.f.f.f.f.f.f.f.",
"f.f.f.f.f.f.f.f.f.f.f.f.f.f.f.f.f.f.f.f.f.f.f.f.f.f.f.f.f.f.f.f.",
"f.f.f.f.f.f.f.f.f.f.f.f.f.f.f.f.f.f.f.f.f.f.f.f.f.f.f.f.f.f.f.f.",
"f.f.f.f.f.f.f.f.f.f.f.f.f.f.f.f.f.f.f.f.f.f.f.f.f.f.f.f.f.f.f.f.",
"f.f.f.f.f.f.f.f.f.f.f.f.f.f.f.f.f.f.f.f.f.f.f.f.f.f.f.f.f.f.f.f.",
"f.f.f.f.I Z V B V V V Z Z V Z W f.6.M B V B B B B V V P f.f.f.f.",
"f.f.f.f.n f.f.f.f.f.f.f.f.f.f.Z f.F f.f.f.f.f.f.f.f.f.A f.f.f.f.",
"f.f.f.f.o =.q.f.f.f.f.f.f.q.-.= f.D O.#.f.f.f.f.f.f.=.# f.f.f.f.",
"f.f.f.f.9.@.E + q.f.f.f.f.O -.y.f.f.@.$.n f.f.f.K S @.9.f.f.f.f.",
"f.f.f.f.f.f.f.f.X f.f.f.f.Z f.f.f.f.f.& d.f.f.M 5.f.f.f.f.f.f.f.",
"f.f.f.f.f.f.f.f.f.. f.f.f.f.# f.f.f.# q.f.f.B *.f.f.f.f.f.f.f.f.",
"f.f.f.f.f.f.f.f.f.0.* f.f.f.f.& f.= p.f.f.L +.f.f.f.f.f.f.f.f.f.",
"f.f.f.f.` _ _ ] f.f.! R ,.^ f.8.  p.{ c / o.f.` ` _ ( _ f.f.f.f.",
"f.f.f.f.< 1 7 > , f.f.4.1 : w.f.f.s , r < 0 f., < 3 < 4 f.f.f.f.",
"f.f.f.f.1 _ f.f.; i.f.:., 8 f f.f.> ( f.f.r.f.< ` f.f.f.f.f.f.f.",
"f.f.f.f.3 w v 8 0 f.f.r f >.: f.f.t ; 0 ] f.f.< 0 f y ` f.f.f.f.",
"f.f.f.f.3 0 c r 1 f.f.: ~ >.> [ f.f.] 0 : 0 f.< 0 j u ' f.f.f.f.",
"f.f.f.f.1 ( f.f.: } ' , 2 < < 0 f.f.f.f.[ ; f.< _ f.f.f.f.f.f.f.",
"f.f.f.f.1 6 p 6 ; f.< k f.f.<.- f.> w l 1 5 f.< 4 r 0 r f.f.f.f.",
"f.f.f.f.c k k c t.f.i e.f.f. .d ;.1.f r v 3.2.b z k g l f.f.f.f.",
"f.f.f.f.f.f.f.f.&.U f.f.f.@ f.f.%.| f.f.f.f.m s.f.f.f.f.f.f.f.f.",
"f.f.f.f.f.f.f.$.G f.f.f.a d.f.f.f.Y $.f.f.f.f.@ f.f.f.f.f.f.f.f.",
"f.f.f.f.f.f.-.A f.f.f.H 9.f.f.f.f.f.M u.f.f.f.f.$ f.f.f.f.f.f.f.",
"f.f.f.f.5.T V f.f.f.f.% O.X.f.f.6.o.! = f.f.f.f.q.# ..*.f.f.f.f.",
"f.f.f.f.% d.f.f.f.f.f.f.5.-.D f.= 6.-.f.f.f.f.f.f.f.q.& f.f.f.f.",
"f.f.f.f.A f.f.f.f.f.f.f.f.f.A f.N f.f.f.f.f.f.f.f.f.f.Z f.f.f.f.",
"f.f.f.f.I Z B B B B B V V M 6.f.Q Z Z Z Z V V V V V A J f.f.f.f.",
"f.f.f.f.f.f.f.f.f.f.f.f.f.f.f.f.f.f.f.f.f.f.f.f.f.f.f.f.f.f.f.f.",
"f.f.f.f.f.f.f.f.f.f.f.f.f.f.f.f.f.f.f.f.f.f.f.f.f.f.f.f.f.f.f.f.",
"f.f.f.f.f.f.f.f.f.f.f.f.f.f.f.f.f.f.f.f.f.f.f.f.f.f.f.f.f.f.f.f.",
"f.f.f.f.f.f.f.f.f.f.f.f.f.f.f.f.f.f.f.f.f.f.f.f.f.f.f.f.f.f.f.f.",
"f.f.f.f.f.f.f.f.f.f.f.f.f.f.f.f.f.f.f.f.f.f.f.f.f.f.f.f.f.f.f.f."
};
